<svg width="1280" height="640" viewBox="0 0 1280 640" fill="none" xmlns="http://www.w3.org/2000/svg">
  <defs>
    <linearGradient id="bg" x1="120" y1="40" x2="1160" y2="600" gradientUnits="userSpaceOnUse">
      <stop stop-color="#070D1E"/>
      <stop offset="1" stop-color="#030814"/>
    </linearGradient>
    <linearGradient id="brand" x1="196" y1="176" x2="460" y2="420" gradientUnits="userSpaceOnUse">
      <stop stop-color="#1463FF"/>
      <stop offset="1" stop-color="#00C2A8"/>
    </linearGradient>
    <radialGradient id="glowA" cx="0" cy="0" r="1" gradientUnits="userSpaceOnUse" gradientTransform="translate(1030 120) rotate(127.8) scale(420 560)">
      <stop stop-color="#1463FF" stop-opacity="0.28"/>
      <stop offset="1" stop-color="#1463FF" stop-opacity="0"/>
    </radialGradient>
    <radialGradient id="glowB" cx="0" cy="0" r="1" gradientUnits="userSpaceOnUse" gradientTransform="translate(300 520) rotate(127.8) scale(380 520)">
      <stop stop-color="#00C2A8" stop-opacity="0.2"/>
      <stop offset="1" stop-color="#00C2A8" stop-opacity="0"/>
    </radialGradient>
    <filter id="soft" x="0" y="0" width="1280" height="640" filterUnits="userSpaceOnUse" color-interpolation-filters="sRGB">
      <feGaussianBlur stdDeviation="48"/>
    </filter>
  </defs>

  <rect width="1280" height="640" rx="28" fill="url(#bg)"/>

  <g filter="url(#soft)">
    <ellipse cx="1030" cy="120" rx="260" ry="210" fill="url(#glowA)"/>
    <ellipse cx="300" cy="520" rx="240" ry="180" fill="url(#glowB)"/>
  </g>

  <rect x="88" y="152" width="240" height="240" rx="54" fill="#0F1833"/>
  <path d="M114 196H302V225H218V343H200V225H114V196Z" fill="#1463FF"/>
  <path d="M218 196H302V225H248V343H218V196Z" fill="#00C2A8"/>

  <text x="374" y="278" fill="#F3F7FF" font-family="Sora, Segoe UI, sans-serif" font-size="98" font-weight="700" letter-spacing="-0.03em">Tirsa Software</text>
  <text x="378" y="338" fill="#AFC0E6" font-family="Manrope, Segoe UI, sans-serif" font-size="34" font-weight="500" letter-spacing="0.01em">AI-native software house</text>

  <rect x="376" y="380" width="320" height="54" rx="27" fill="url(#brand)" fill-opacity="0.18" stroke="#2B6DFF" stroke-opacity="0.35"/>
  <text x="402" y="414" fill="#CFE3FF" font-family="Manrope, Segoe UI, sans-serif" font-size="24" font-weight="600">Spec-driven • Product-first</text>

  <g opacity="0.33" stroke="#28406D" stroke-width="1">
    <path d="M56 116H1224"/>
    <path d="M56 524H1224"/>
    <path d="M640 72V568"/>
  </g>
</svg>
